<mxfile host="app.diagrams.net" modified="2021-02-27T20:16:10.151Z" agent="5.0 (Windows NT 10.0; Win64; x64) AppleWebKit/537.36 (KHTML, like Gecko) Chrome/88.0.4324.190 Safari/537.36" etag="zHydYtAijBK6fp7DvJ3O" version="13.7.1" type="github">
  <diagram id="TSc8M2aQanpHi99RWJcm" name="Page-1">
    <mxGraphModel dx="1662" dy="794" grid="0" gridSize="10" guides="1" tooltips="1" connect="1" arrows="1" fold="1" page="1" pageScale="1" pageWidth="850" pageHeight="1100" math="0" shadow="0">
      <root>
        <mxCell id="0" />
        <mxCell id="1" parent="0" />
        <mxCell id="v8qC128liEodUwgJ5zLA-15" value="" style="group" parent="1" vertex="1" connectable="0">
          <mxGeometry x="193" y="39" width="660" height="817" as="geometry" />
        </mxCell>
        <mxCell id="v8qC128liEodUwgJ5zLA-13" value="" style="rounded=1;arcSize=10;dashed=0;fillColor=none;gradientColor=none;strokeWidth=2;" parent="v8qC128liEodUwgJ5zLA-15" vertex="1">
          <mxGeometry x="-2" y="30.413264614132647" width="660" height="524.6288145937881" as="geometry" />
        </mxCell>
        <mxCell id="v8qC128liEodUwgJ5zLA-14" value="" style="dashed=0;html=1;shape=mxgraph.aws3.cloud;fillColor=#F58536;gradientColor=none;dashed=0;" parent="v8qC128liEodUwgJ5zLA-15" vertex="1">
          <mxGeometry x="27.18" y="14.65" width="51.82" height="38.35" as="geometry" />
        </mxCell>
        <mxCell id="v8qC128liEodUwgJ5zLA-16" value="US East (N. Virginia) [us-east-1]" style="text;whiteSpace=wrap;html=1;" parent="v8qC128liEodUwgJ5zLA-15" vertex="1">
          <mxGeometry x="83.0021568627451" y="30.41506849315067" width="219.196862745098" height="28.153424657534252" as="geometry" />
        </mxCell>
        <mxCell id="v8qC128liEodUwgJ5zLA-21" value="DynamoDB - &lt;br&gt;Clientes" style="outlineConnect=0;dashed=0;verticalLabelPosition=bottom;verticalAlign=top;align=center;html=1;shape=mxgraph.aws3.dynamo_db;fillColor=#2E73B8;gradientColor=none;" parent="v8qC128liEodUwgJ5zLA-15" vertex="1">
          <mxGeometry x="538.9974509803923" y="399.9979452054794" width="44.68398431372548" height="50.27397260273973" as="geometry" />
        </mxCell>
        <mxCell id="v8qC128liEodUwgJ5zLA-22" value="Amazon RDS - &lt;br&gt;Catalogo de productos" style="outlineConnect=0;dashed=0;verticalLabelPosition=bottom;verticalAlign=top;align=center;html=1;shape=mxgraph.aws3.rds;fillColor=#2E73B8;gradientColor=none;" parent="v8qC128liEodUwgJ5zLA-15" vertex="1">
          <mxGeometry x="541.6674509803922" y="249.3734246575343" width="42.00938039215686" height="47.25753424657535" as="geometry" />
        </mxCell>
        <mxCell id="v8qC128liEodUwgJ5zLA-44" style="edgeStyle=orthogonalEdgeStyle;rounded=0;orthogonalLoop=1;jettySize=auto;html=1;" parent="v8qC128liEodUwgJ5zLA-15" source="v8qC128liEodUwgJ5zLA-18" target="v8qC128liEodUwgJ5zLA-21" edge="1">
          <mxGeometry relative="1" as="geometry" />
        </mxCell>
        <mxCell id="v8qC128liEodUwgJ5zLA-18" value="Lambda - clientes&amp;nbsp;&lt;br&gt;- java" style="outlineConnect=0;dashed=0;verticalLabelPosition=bottom;verticalAlign=top;align=center;html=1;shape=mxgraph.aws3.lambda;fillColor=#F58534;gradientColor=none;" parent="v8qC128liEodUwgJ5zLA-15" vertex="1">
          <mxGeometry x="366.00176470588247" y="390.9495890410958" width="53.29098039215685" height="68.37260273972603" as="geometry" />
        </mxCell>
        <mxCell id="v8qC128liEodUwgJ5zLA-45" style="edgeStyle=orthogonalEdgeStyle;rounded=0;orthogonalLoop=1;jettySize=auto;html=1;entryX=0;entryY=0.5;entryDx=0;entryDy=0;entryPerimeter=0;" parent="v8qC128liEodUwgJ5zLA-15" source="v8qC128liEodUwgJ5zLA-20" target="v8qC128liEodUwgJ5zLA-18" edge="1">
          <mxGeometry relative="1" as="geometry" />
        </mxCell>
        <mxCell id="v8qC128liEodUwgJ5zLA-46" style="edgeStyle=orthogonalEdgeStyle;rounded=0;orthogonalLoop=1;jettySize=auto;html=1;entryX=0;entryY=0.5;entryDx=0;entryDy=0;entryPerimeter=0;" parent="v8qC128liEodUwgJ5zLA-15" source="v8qC128liEodUwgJ5zLA-20" target="v8qC128liEodUwgJ5zLA-34" edge="1">
          <mxGeometry relative="1" as="geometry" />
        </mxCell>
        <mxCell id="v8qC128liEodUwgJ5zLA-47" style="edgeStyle=orthogonalEdgeStyle;rounded=0;orthogonalLoop=1;jettySize=auto;html=1;entryX=0;entryY=0.5;entryDx=0;entryDy=0;entryPerimeter=0;" parent="v8qC128liEodUwgJ5zLA-15" source="v8qC128liEodUwgJ5zLA-20" target="v8qC128liEodUwgJ5zLA-43" edge="1">
          <mxGeometry relative="1" as="geometry" />
        </mxCell>
        <mxCell id="v8qC128liEodUwgJ5zLA-20" value="Amazon API Gateway" style="outlineConnect=0;dashed=0;verticalLabelPosition=bottom;verticalAlign=top;align=center;html=1;shape=mxgraph.aws3.api_gateway;fillColor=#D9A741;gradientColor=none;" parent="v8qC128liEodUwgJ5zLA-15" vertex="1">
          <mxGeometry x="187.9966666666666" y="148.9709589041095" width="58.72062745098039" height="71.38904109589042" as="geometry" />
        </mxCell>
        <mxCell id="v8qC128liEodUwgJ5zLA-19" value="Amazon Cognito" style="outlineConnect=0;dashed=0;verticalLabelPosition=bottom;verticalAlign=top;align=center;html=1;shape=mxgraph.aws3.cognito;fillColor=#AD688B;gradientColor=none;" parent="v8qC128liEodUwgJ5zLA-15" vertex="1">
          <mxGeometry x="182.78607843137252" y="320.9968493150684" width="49.630996078431366" height="60.328767123287676" as="geometry" />
        </mxCell>
        <mxCell id="v8qC128liEodUwgJ5zLA-24" value="" style="outlineConnect=0;dashed=0;verticalLabelPosition=bottom;verticalAlign=top;align=center;html=1;shape=mxgraph.aws3.codecommit;fillColor=#759C3E;gradientColor=none;" parent="v8qC128liEodUwgJ5zLA-15" vertex="1">
          <mxGeometry x="31.999999999999993" y="482" width="37.02" height="45" as="geometry" />
        </mxCell>
        <mxCell id="v8qC128liEodUwgJ5zLA-25" value="" style="outlineConnect=0;dashed=0;verticalLabelPosition=bottom;verticalAlign=top;align=center;html=1;shape=mxgraph.aws3.codedeploy;fillColor=#759C3E;gradientColor=none;" parent="v8qC128liEodUwgJ5zLA-15" vertex="1">
          <mxGeometry x="80.09000000000003" y="482" width="38.33" height="46" as="geometry" />
        </mxCell>
        <mxCell id="v8qC128liEodUwgJ5zLA-26" value="" style="outlineConnect=0;dashed=0;verticalLabelPosition=bottom;verticalAlign=top;align=center;html=1;shape=mxgraph.aws3.codepipeline;fillColor=#759C3E;gradientColor=none;" parent="v8qC128liEodUwgJ5zLA-15" vertex="1">
          <mxGeometry x="126.41999999999996" y="482" width="38.33" height="46" as="geometry" />
        </mxCell>
        <mxCell id="v8qC128liEodUwgJ5zLA-27" value="" style="outlineConnect=0;dashed=0;verticalLabelPosition=bottom;verticalAlign=top;align=center;html=1;shape=mxgraph.aws3.codestar;fillColor=#759C3E;gradientColor=none;" parent="v8qC128liEodUwgJ5zLA-15" vertex="1">
          <mxGeometry x="176.41999999999996" y="482" width="39.17" height="47" as="geometry" />
        </mxCell>
        <mxCell id="v8qC128liEodUwgJ5zLA-28" value="" style="outlineConnect=0;dashed=0;verticalLabelPosition=bottom;verticalAlign=top;align=center;html=1;shape=mxgraph.aws3.codebuild;fillColor=#759C3E;gradientColor=none;" parent="v8qC128liEodUwgJ5zLA-15" vertex="1">
          <mxGeometry x="224.41999999999996" y="483.5" width="35.37" height="43" as="geometry" />
        </mxCell>
        <mxCell id="v8qC128liEodUwgJ5zLA-48" style="edgeStyle=orthogonalEdgeStyle;rounded=0;orthogonalLoop=1;jettySize=auto;html=1;" parent="v8qC128liEodUwgJ5zLA-15" source="v8qC128liEodUwgJ5zLA-17" target="v8qC128liEodUwgJ5zLA-20" edge="1">
          <mxGeometry relative="1" as="geometry" />
        </mxCell>
        <mxCell id="v8qC128liEodUwgJ5zLA-54" style="edgeStyle=orthogonalEdgeStyle;rounded=0;orthogonalLoop=1;jettySize=auto;html=1;entryX=0;entryY=0.5;entryDx=0;entryDy=0;entryPerimeter=0;" parent="v8qC128liEodUwgJ5zLA-15" source="v8qC128liEodUwgJ5zLA-17" target="v8qC128liEodUwgJ5zLA-19" edge="1">
          <mxGeometry relative="1" as="geometry" />
        </mxCell>
        <mxCell id="v8qC128liEodUwgJ5zLA-17" value="Web UI - React" style="outlineConnect=0;dashed=0;verticalLabelPosition=bottom;verticalAlign=top;align=center;html=1;shape=mxgraph.aws3.elastic_beanstalk;fillColor=#F58534;gradientColor=none;" parent="v8qC128liEodUwgJ5zLA-15" vertex="1">
          <mxGeometry x="56.003333333333316" y="153.99547945205472" width="43.23607843137255" height="61.33424657534246" as="geometry" />
        </mxCell>
        <mxCell id="v8qC128liEodUwgJ5zLA-62" style="edgeStyle=orthogonalEdgeStyle;rounded=0;orthogonalLoop=1;jettySize=auto;html=1;entryX=0;entryY=0.5;entryDx=0;entryDy=0;entryPerimeter=0;" parent="v8qC128liEodUwgJ5zLA-15" source="v8qC128liEodUwgJ5zLA-34" target="v8qC128liEodUwgJ5zLA-22" edge="1">
          <mxGeometry relative="1" as="geometry" />
        </mxCell>
        <mxCell id="v8qC128liEodUwgJ5zLA-34" value="ECS - consultarCatalogo&lt;br&gt;- node.js" style="outlineConnect=0;dashed=0;verticalLabelPosition=bottom;verticalAlign=top;align=center;html=1;shape=mxgraph.aws3.ecs;fillColor=#F58534;gradientColor=none;" parent="v8qC128liEodUwgJ5zLA-15" vertex="1">
          <mxGeometry x="366.00000000000006" y="243.99999999999991" width="61.87" height="58" as="geometry" />
        </mxCell>
        <mxCell id="v8qC128liEodUwgJ5zLA-35" value="" style="rounded=1;arcSize=10;dashed=1;fillColor=none;gradientColor=none;strokeWidth=2;dashPattern=1 1;" parent="v8qC128liEodUwgJ5zLA-15" vertex="1">
          <mxGeometry x="17" y="455.35" width="302" height="82" as="geometry" />
        </mxCell>
        <mxCell id="v8qC128liEodUwgJ5zLA-36" value="Developer Tools" style="text;whiteSpace=wrap;html=1;" parent="v8qC128liEodUwgJ5zLA-15" vertex="1">
          <mxGeometry x="32.002156862745096" y="455.3450684931507" width="219.196862745098" height="28.153424657534252" as="geometry" />
        </mxCell>
        <mxCell id="v8qC128liEodUwgJ5zLA-64" style="edgeStyle=orthogonalEdgeStyle;rounded=0;orthogonalLoop=1;jettySize=auto;html=1;entryX=0;entryY=0.5;entryDx=0;entryDy=0;entryPerimeter=0;" parent="v8qC128liEodUwgJ5zLA-15" source="v8qC128liEodUwgJ5zLA-43" target="v8qC128liEodUwgJ5zLA-63" edge="1">
          <mxGeometry relative="1" as="geometry" />
        </mxCell>
        <mxCell id="v8qC128liEodUwgJ5zLA-43" value="EC2 - realizarPedido&lt;br&gt;- python&amp;nbsp;" style="outlineConnect=0;dashed=0;verticalLabelPosition=bottom;verticalAlign=top;align=center;html=1;shape=mxgraph.aws3.ec2;fillColor=#F58534;gradientColor=none;dashPattern=1 1;" parent="v8qC128liEodUwgJ5zLA-15" vertex="1">
          <mxGeometry x="368.64" y="82" width="59.23" height="72" as="geometry" />
        </mxCell>
        <mxCell id="v8qC128liEodUwgJ5zLA-63" value="DynamoDB - &lt;br&gt;Pedidos" style="outlineConnect=0;dashed=0;verticalLabelPosition=bottom;verticalAlign=top;align=center;html=1;shape=mxgraph.aws3.dynamo_db;fillColor=#2E73B8;gradientColor=none;" parent="v8qC128liEodUwgJ5zLA-15" vertex="1">
          <mxGeometry x="541.6674509803922" y="92.86794520547942" width="44.68398431372548" height="50.27397260273973" as="geometry" />
        </mxCell>
        <mxCell id="v8qC128liEodUwgJ5zLA-67" value="" style="outlineConnect=0;dashed=0;verticalLabelPosition=bottom;verticalAlign=top;align=center;html=1;shape=mxgraph.aws3.cloudwatch;fillColor=#759C3E;gradientColor=none;dashPattern=1 1;" parent="v8qC128liEodUwgJ5zLA-15" vertex="1">
          <mxGeometry x="270" y="475.17" width="42.41" height="53.83" as="geometry" />
        </mxCell>
        <mxCell id="v8qC128liEodUwgJ5zLA-23" value="Usuario [Descripción]" style="html=1;verticalLabelPosition=bottom;align=center;labelBackgroundColor=#ffffff;verticalAlign=top;strokeWidth=2;strokeColor=#0080F0;shadow=0;dashed=0;shape=mxgraph.ios7.icons.user;" parent="1" vertex="1">
          <mxGeometry x="41" y="227" width="62" height="62" as="geometry" />
        </mxCell>
        <mxCell id="v8qC128liEodUwgJ5zLA-52" style="edgeStyle=orthogonalEdgeStyle;rounded=0;orthogonalLoop=1;jettySize=auto;html=1;entryX=0.26;entryY=0.5;entryDx=0;entryDy=0;entryPerimeter=0;" parent="1" source="v8qC128liEodUwgJ5zLA-49" target="v8qC128liEodUwgJ5zLA-17" edge="1">
          <mxGeometry relative="1" as="geometry" />
        </mxCell>
        <mxCell id="v8qC128liEodUwgJ5zLA-49" value="" style="outlineConnect=0;dashed=0;verticalLabelPosition=bottom;verticalAlign=top;align=center;html=1;shape=mxgraph.aws3.mobile_client;fillColor=#D2D3D3;gradientColor=none;dashPattern=1 1;" parent="1" vertex="1">
          <mxGeometry x="115" y="172" width="40.5" height="63" as="geometry" />
        </mxCell>
        <mxCell id="v8qC128liEodUwgJ5zLA-53" style="edgeStyle=orthogonalEdgeStyle;rounded=0;orthogonalLoop=1;jettySize=auto;html=1;" parent="1" source="v8qC128liEodUwgJ5zLA-50" target="v8qC128liEodUwgJ5zLA-17" edge="1">
          <mxGeometry relative="1" as="geometry" />
        </mxCell>
        <mxCell id="v8qC128liEodUwgJ5zLA-50" value="" style="verticalLabelPosition=bottom;html=1;verticalAlign=top;align=center;strokeColor=none;fillColor=#00BEF2;shape=mxgraph.azure.laptop;pointerEvents=1;dashed=1;dashPattern=1 1;" parent="1" vertex="1">
          <mxGeometry x="108" y="246" width="60" height="36" as="geometry" />
        </mxCell>
        <mxCell id="v8qC128liEodUwgJ5zLA-8" value="IBM Cloud - Dalas" style="shape=mxgraph.ibm.box;prType=cloud;fontStyle=0;verticalAlign=top;align=left;spacingLeft=32;spacingTop=4;fillColor=none;rounded=0;whiteSpace=wrap;html=1;strokeColor=#4376BB;strokeWidth=3;dashed=0;container=1;spacing=-4;collapsible=0;expand=0;recursiveResize=0;" parent="1" vertex="1">
          <mxGeometry x="868" y="69" width="220" height="525" as="geometry" />
        </mxCell>
        <mxCell id="v8qC128liEodUwgJ5zLA-66" style="edgeStyle=orthogonalEdgeStyle;rounded=0;orthogonalLoop=1;jettySize=auto;html=1;" parent="v8qC128liEodUwgJ5zLA-8" source="v8qC128liEodUwgJ5zLA-55" target="v8qC128liEodUwgJ5zLA-58" edge="1">
          <mxGeometry relative="1" as="geometry" />
        </mxCell>
        <mxCell id="v8qC128liEodUwgJ5zLA-55" value="functions - aplicarPromoción &lt;br&gt;- node.js" style="aspect=fixed;perimeter=ellipsePerimeter;html=1;align=center;shadow=0;dashed=0;fontColor=#4277BB;labelBackgroundColor=#ffffff;fontSize=12;spacingTop=3;image;image=img/lib/ibm/miscellaneous/openwhisk.svg;dashPattern=1 1;" parent="v8qC128liEodUwgJ5zLA-8" vertex="1">
          <mxGeometry x="80" y="162" width="60" height="60" as="geometry" />
        </mxCell>
        <mxCell id="v8qC128liEodUwgJ5zLA-58" value="cloudant - &lt;br&gt;Promociones&amp;nbsp;&amp;nbsp;" style="aspect=fixed;perimeter=ellipsePerimeter;html=1;align=center;shadow=0;dashed=0;fontColor=#4277BB;labelBackgroundColor=#ffffff;fontSize=12;spacingTop=3;image;image=img/lib/ibm/miscellaneous/cloudant.svg;dashPattern=1 1;" parent="v8qC128liEodUwgJ5zLA-8" vertex="1">
          <mxGeometry x="80" y="340" width="60" height="60" as="geometry" />
        </mxCell>
        <mxCell id="v8qC128liEodUwgJ5zLA-65" style="edgeStyle=orthogonalEdgeStyle;rounded=0;orthogonalLoop=1;jettySize=auto;html=1;entryX=0;entryY=0.5;entryDx=0;entryDy=0;" parent="1" source="v8qC128liEodUwgJ5zLA-43" target="v8qC128liEodUwgJ5zLA-55" edge="1">
          <mxGeometry relative="1" as="geometry">
            <Array as="points">
              <mxPoint x="663" y="157" />
              <mxPoint x="663" y="259" />
            </Array>
          </mxGeometry>
        </mxCell>
      </root>
    </mxGraphModel>
  </diagram>
</mxfile>
